<svg width="25" height="25" viewBox="0 0 25 25" fill="none" xmlns="http://www.w3.org/2000/svg">
<g clip-path="url(#clip0_38_97)">
<path fill-rule="evenodd" clip-rule="evenodd" d="M3.57143 10.7143C3.57143 6.76939 6.76939 3.57143 10.7143 3.57143C14.6592 3.57143 17.8571 6.76939 17.8571 10.7143C17.8571 14.6592 14.6592 17.8571 10.7143 17.8571C6.76939 17.8571 3.57143 14.6592 3.57143 10.7143ZM10.7143 0C4.79695 0 0 4.79695 0 10.7143C0 16.6316 4.79695 21.4286 10.7143 21.4286C13.0282 21.4286 15.1708 20.695 16.9222 19.4479L21.9516 24.4773C22.6489 25.1746 23.7796 25.1746 24.477 24.4773C25.1743 23.78 25.1743 22.6493 24.477 21.952L19.4477 16.9226C20.695 15.1711 21.4286 13.0284 21.4286 10.7143C21.4286 4.79695 16.6316 0 10.7143 0Z" fill="black"/>
</g>
<defs>
<clipPath id="clip0_38_97">
<rect width="25" height="25" fill="white"/>
</clipPath>
</defs>
</svg>
